<?xml version="1.0" encoding="UTF-8" standalone="no"?>
<!-- Created with Inkscape (http://www.inkscape.org/) -->

<svg
   xmlns:dc="http://purl.org/dc/elements/1.1/"
   xmlns:cc="http://creativecommons.org/ns#"
   xmlns:rdf="http://www.w3.org/1999/02/22-rdf-syntax-ns#"
   xmlns:svg="http://www.w3.org/2000/svg"
   xmlns="http://www.w3.org/2000/svg"
   xmlns:xlink="http://www.w3.org/1999/xlink"
   xmlns:sodipodi="http://sodipodi.sourceforge.net/DTD/sodipodi-0.dtd"
   xmlns:inkscape="http://www.inkscape.org/namespaces/inkscape"
   width="200mm"
   height="200mm"
   viewBox="0 0 200 200"
   version="1.1"
   id="svg8"
   sodipodi:docname="logo.svg"
   inkscape:version="0.92.4 (5da689c313, 2019-01-14)">
  <defs
     id="defs2">
    <linearGradient
       inkscape:collect="always"
       id="linearGradient887">
      <stop
         style="stop-color:#ffffff;stop-opacity:1;"
         offset="0"
         id="stop883" />
      <stop
         style="stop-color:#ffffff;stop-opacity:0;"
         offset="1"
         id="stop885" />
    </linearGradient>
    <linearGradient
       inkscape:collect="always"
       id="linearGradient877">
      <stop
         style="stop-color:#ffffff;stop-opacity:1;"
         offset="0"
         id="stop873" />
      <stop
         style="stop-color:#ffffff;stop-opacity:0;"
         offset="1"
         id="stop875" />
    </linearGradient>
    <linearGradient
       inkscape:collect="always"
       xlink:href="#linearGradient877"
       id="linearGradient879"
       x1="813.57141"
       y1="426.61981"
       x2="-46.428574"
       y2="428.04837"
       gradientUnits="userSpaceOnUse" />
    <linearGradient
       inkscape:collect="always"
       xlink:href="#linearGradient887"
       id="linearGradient889"
       x1="-39.285713"
       y1="320.90552"
       x2="813.57141"
       y2="329.47696"
       gradientUnits="userSpaceOnUse" />
  </defs>
  <sodipodi:namedview
     id="base"
     pagecolor="#ffffff"
     bordercolor="#666666"
     borderopacity="1.0"
     inkscape:pageopacity="0.0"
     inkscape:pageshadow="2"
     inkscape:zoom="1.4"
     inkscape:cx="404.26982"
     inkscape:cy="382.01186"
     inkscape:document-units="mm"
     inkscape:current-layer="layer1"
     showgrid="false"
     inkscape:window-width="1920"
     inkscape:window-height="1051"
     inkscape:window-x="-9"
     inkscape:window-y="-9"
     inkscape:window-maximized="1" />
  <metadata
     id="metadata5">
    <rdf:RDF>
      <cc:Work
         rdf:about="">
        <dc:format>image/svg+xml</dc:format>
        <dc:type
           rdf:resource="http://purl.org/dc/dcmitype/StillImage" />
        <dc:title></dc:title>
      </cc:Work>
    </rdf:RDF>
  </metadata>
  <g
     inkscape:label="Layer 1"
     inkscape:groupmode="layer"
     id="layer1"
     transform="translate(0,-97)">
    <ellipse
       style="fill:#444444;fill-opacity:1;stroke:none;stroke-width:0;stroke-miterlimit:4;stroke-dasharray:none;stroke-opacity:1"
       id="path815"
       cx="100"
       cy="197"
       rx="100"
       ry="50" />
  </g>
  <g
     inkscape:groupmode="layer"
     id="layer2"
     inkscape:label="Layer 2">
    <ellipse
       style="fill:#ffffff;fill-opacity:1;stroke:none;stroke-width:0;stroke-miterlimit:4;stroke-dasharray:none;stroke-opacity:1"
       id="path818"
       cx="100"
       cy="100"
       rx="50"
       ry="12.5" />
    <path
       style="fill:url(#linearGradient879);fill-opacity:1;stroke:#ff44e6;stroke-width:0;stroke-miterlimit:4;stroke-dasharray:none;stroke-opacity:1"
       d="M 351.05816,566.14243 C 218.48363,561.27916 100.5112,521.94139 40.806038,462.68923 19.853589,441.89576 7.0382307,419.83319 2.0154896,395.90851 0.23293407,387.41771 0.21596,368.58967 1.9832921,360.19423 7.56787,333.66553 22.695636,309.18939 47.12005,287.1647 c 10.513375,-9.48042 21.731534,-18.03997 22.066907,-16.83722 0.143882,0.516 0.784739,5.92032 1.424132,12.00961 2.652542,25.26179 9.261957,48.04261 20.508707,70.6879 15.858104,31.9302 39.896524,58.43317 72.101954,79.49425 60.36551,39.47664 148.19845,56.17727 235.54141,44.78604 81.03169,-10.56812 145.06337,-43.98199 165.96726,-86.60727 1.72262,-3.51261 2.14443,-4.99904 1.52693,-5.38067 -0.65025,-0.40188 -0.5942,-1.2791 0.23559,-3.68759 3.47393,-10.08315 -6.78714,-20.52545 -28.64907,-29.15511 -60.61517,-23.92691 -190.94732,-29.30084 -278.89379,-11.49953 -29.38346,5.94754 -52.92108,14.86654 -62.69123,23.75531 -4.61925,4.20254 -4.5604,3.42859 0.36461,-4.79473 26.00654,-43.42332 96.57461,-74.77335 184.4347,-81.93555 13.33443,-1.087 47.48215,-1.11343 60.35714,-0.0467 50.18235,4.15766 94.10787,15.89303 130.15171,34.77201 56.68921,29.69257 93.00894,74.19339 107.76663,132.04127 2.17301,8.51787 5.00543,25.06346 5.63683,32.92754 0.25233,3.14286 0.61593,6.55311 0.80798,7.57834 0.31886,1.70214 -0.32083,2.29836 -7.36412,6.86386 -40.93504,26.53428 -90.01936,45.6731 -151.77746,59.18064 -52.00651,11.37471 -117.92183,16.9404 -175.57871,14.82536 z"
       id="path855"
       inkscape:connector-curvature="0"
       transform="scale(0.26458333)" />
    <path
       style="fill:url(#linearGradient889);fill-opacity:1;stroke:#ff44e6;stroke-width:0;stroke-miterlimit:4;stroke-dasharray:none;stroke-opacity:1"
       d="m 687.20085,483.63966 c -0.20369,-1.3057 -0.57025,-4.624 -0.81459,-7.374 -0.24434,-2.75 -1.204,-9.5 -2.13259,-15 C 673.27432,396.23495 635.68223,345.34123 574.48484,312.65608 517.3617,282.14697 440.64063,269.46904 365.16665,278.06688 c -76.03185,8.66138 -137.76823,36.5019 -165.65883,74.70518 -3.7331,5.11342 -9.30259,15.55485 -9.66986,18.12863 -1.44799,10.14715 -0.93704,12.53412 3.81423,17.81867 16.10643,17.91424 73.26061,31.89151 146.42422,35.80861 18.13963,0.97117 74.28036,0.52136 89.55318,-0.71753 66.81168,-5.41957 113.02132,-17.17473 130.5103,-33.2002 5.35447,-4.9064 5.51737,-4.08602 0.80196,4.03872 -18.92283,32.60445 -62.48664,59.04419 -120.94963,73.40675 -31.76637,7.80403 -60.25286,11.06296 -96.07692,10.99148 -44.46773,-0.0887 -81.80093,-5.97898 -119.64365,-18.87683 C 134.33917,429.51887 80.016251,365.03708 71.671223,279.03228 c -0.490715,-5.05736 -1.171676,-9.38777 -1.513247,-9.62312 -0.634923,-0.4375 10.292512,-7.8038 20.543041,-13.8483 53.829003,-31.74168 130.913123,-54.39599 212.500003,-62.45177 29.28602,-2.89166 37.67501,-3.25822 74.64285,-3.26147 36.96057,-0.003 45.79089,0.38027 75,3.25744 110.17884,10.85287 207.24542,47.30054 259.51199,97.44451 23.65666,22.69594 37.80839,47.12443 41.96315,72.4361 1.84535,11.24227 1.14782,26.96026 -1.68291,37.92284 -7.89551,30.57687 -27.8384,57.13095 -62.42857,83.12404 l -2.63634,1.9811 z"
       id="path881"
       inkscape:connector-curvature="0"
       transform="scale(0.26458333)" />
  </g>
  <g
     inkscape:groupmode="layer"
     id="layer3"
     inkscape:label="Layer 3" />
</svg>
