<?xml version="1.0" encoding="UTF-8" standalone="no"?>
<svg
   xmlns:dc="http://purl.org/dc/elements/1.1/"
   xmlns:cc="http://creativecommons.org/ns#"
   xmlns:rdf="http://www.w3.org/1999/02/22-rdf-syntax-ns#"
   xmlns:svg="http://www.w3.org/2000/svg"
   xmlns="http://www.w3.org/2000/svg"
   xmlns:sodipodi="http://sodipodi.sourceforge.net/DTD/sodipodi-0.dtd"
   xmlns:inkscape="http://www.inkscape.org/namespaces/inkscape"
   height="24"
   viewBox="0 0 24 24"
   width="24"
   version="1.1"
   id="svg6"
   sodipodi:docname="business_custom.svg"
   inkscape:version="0.92.4 (5da689c313, 2019-01-14)">
  <metadata
     id="metadata12">
    <rdf:RDF>
      <cc:Work
         rdf:about="">
        <dc:format>image/svg+xml</dc:format>
        <dc:type
           rdf:resource="http://purl.org/dc/dcmitype/StillImage" />
        <dc:title></dc:title>
      </cc:Work>
    </rdf:RDF>
  </metadata>
  <defs
     id="defs10" />
  <sodipodi:namedview
     pagecolor="#ffffff"
     bordercolor="#666666"
     borderopacity="1"
     objecttolerance="10"
     gridtolerance="10"
     guidetolerance="10"
     inkscape:pageopacity="0"
     inkscape:pageshadow="2"
     inkscape:window-width="1920"
     inkscape:window-height="1051"
     id="namedview8"
     showgrid="false"
     inkscape:zoom="9.8333333"
     inkscape:cx="12"
     inkscape:cy="12"
     inkscape:window-x="-9"
     inkscape:window-y="-9"
     inkscape:window-maximized="1"
     inkscape:current-layer="layer1" />
  <path
     d="M0 0h24v24H0z"
     fill="none"
     id="path2" />
  <g
     inkscape:groupmode="layer"
     id="layer2"
     inkscape:label="Background">
    <rect
       style="fill:#592c8d;fill-opacity:1;stroke:#ff44e6;stroke-width:0;stroke-miterlimit:4;stroke-dasharray:none;stroke-opacity:1"
       id="rect845"
       width="24"
       height="24"
       x="0"
       y="0"
       rx="2"
       ry="2" />
  </g>
  <g
     inkscape:groupmode="layer"
     id="layer1"
     inkscape:label="Top">
    <path
       style="fill:#f8eb00;fill-opacity:1;stroke-width:1"
       d="M 12.042373,8.2090399 V 5.5423729 H 4.5423729 V 17.542373 H 19.542373 V 8.2090399 Z M 7.5423729,16.20904 h -1.5 v -1.333334 h 1.5 z m 0,-2.666667 h -1.5 V 12.20904 h 1.5 z m 0,-2.666667 h -1.5 V 9.5423729 h 1.5 z m 0,-2.6666661 h -1.5 v -1.333334 h 1.5 z M 10.542373,16.20904 H 9.0423729 v -1.333334 h 1.5000001 z m 0,-2.666667 H 9.0423729 V 12.20904 h 1.5000001 z m 0,-2.666667 H 9.0423729 V 9.5423729 h 1.5000001 z m 0,-2.6666661 H 9.0423729 v -1.333334 h 1.5000001 z m 7.5,8.0000001 h -6 v -1.333334 h 1.5 v -1.333333 h -1.5 V 12.20904 h 1.5 v -1.333334 h -1.5 V 9.5423729 h 6 z m -1.5,-5.333334 h -1.5 v 1.333334 h 1.5 z m 0,2.666667 h -1.5 v 1.333333 h 1.5 z"
       id="path4"
       inkscape:connector-curvature="0" />
  </g>
</svg>
